<!DOCTYPE svg PUBLIC "-//W3C//DTD SVG 1.1//EN" "http://www.w3.org/Graphics/SVG/1.1/DTD/svg11.dtd">
<svg xmlns="http://www.w3.org/2000/svg" viewBox="0 0 354 472">
<path fill="#f7f3f1" stroke="#f7f3f1" d="M180.762 22.571c-.185.186-2.12.444-4.3.574-3.759.225-8.301 1.618-13.145 4.033-1.2.598-2.855.83-3.676.514-.822-.315-2.011.048-2.641.808-.63.76-1.748 1.15-2.483.868-.735-.282-2.699.192-4.363 1.053-1.665.86-3.685 1.312-4.49 1.004-.804-.309-1.759-.081-2.122.507-.363.587-1.575 1.068-2.693 1.068s-3.362 1.013-4.987 2.25c-10.976 8.359-15.472 16.491-14.479 26.188.589 5.749.469 6.367-1.333 6.839-1.775.464-8.486 12.359-10.318 18.29-3.53 11.424-3.79 13.515-3.803 30.59-.008 9.711.271 18.792.619 20.18.551 2.194.36 2.452-1.462 1.975-5.35-1.399-6.134 2.581-6.25 31.715-.092 23.178.099 23.973 5.765 23.973 1.977 0 2.348.788 3.414 7.25 1.267 7.676 6.085 20.645 9.152 24.635 1.564 2.035 1.833 4.317 1.833 15.549v13.164l-3.75 1.347c-2.062.741-6.436 3.409-9.72 5.929-4.603 3.532-8.838 5.542-18.5 8.779-19.568 6.555-40.93 14.206-45.954 16.459-2.517 1.128-5.476 2.224-6.576 2.435-1.1.211-9.312 4.072-18.25 8.58L0 307.323v35.339C0 372.764.214 378 1.441 378c.793 0 1.693.408 2.001.907.309.498-.34.671-1.441.383C.021 378.772 0 379.248 0 425.386v46.619l59.931-.044c45.864-.034 60.045-.328 60.421-1.253.371-.916.509-.906.569.042.116 1.83 91.072 1.83 91.094 0 .012-.983.183-.987.797-.02.608.958 16.372 1.179 71.235 1l70.453-.23.064-83c.035-45.65-.102-80.614-.304-77.697l-.368 5.302-22.196-11.433c-12.208-6.289-27.371-13.482-33.696-15.985-10.921-4.323-20.853-8.762-40-17.876-4.715-2.244-10.504-5.957-13-8.337-2.475-2.36-5.4-4.449-6.5-4.643-1.827-.32-2.074-1.483-2.856-13.473l-.855-13.122 4.002-7.466c3.65-6.809 5.694-13.38 8.017-25.77.597-3.183 1.26-4.377 2.268-4.081 5.453 1.603 9.259-1.047 9.592-6.678.407-6.912 2.237-25.701 2.921-30.003.817-5.137-1.717-14.112-5.091-18.035-2.032-2.362-2.533-2.508-4.912-1.424-2.517 1.147-2.593 1.102-1.524-.895 1.01-1.887 1.3-19.232.525-31.384-.798-12.502-7.48-33.248-12.415-38.546-1.466-1.573-1.837-3.034-1.468-5.781.397-2.963-.349-5.294-3.856-12.036l-4.348-8.36-7-2.489c-3.85-1.369-8.8-2.96-11-3.537-2.2-.576-5.935-2.331-8.3-3.899-2.365-1.569-4.667-2.852-5.115-2.852-.449 0-1.888-.832-3.2-1.85-1.312-1.017-3.06-1.889-3.885-1.938-.825-.049-3.165-.514-5.2-1.034s-3.852-.793-4.038-.607M135.5 152c-.34.55-.141 1 .441 1s1.059-.45 1.059-1-.198-1-.441-1-.719.45-1.059 1m13.539 1.927c-.983 1.838-.832 2.033 1.43 1.846 2.868-.237 3.175-.994 1.101-2.715-1.144-.949-1.651-.775-2.531.869m48.229.002-2.233 1.863 2.39.6c1.314.33 3.219.893 4.232 1.251 1.508.533 1.616.407.593-.696-.687-.741-1.25-2.157-1.25-3.147 0-2.262-.904-2.231-3.732.129m15.076 1.617c-1.17 2.483-.76 3.028 1.27 1.689.612-.404.837-1.502.5-2.439-.522-1.449-.787-1.337-1.77.75M135.5 155c.34.55 1.293 1 2.118 1s1.222-.45.882-1c-.34-.55-1.293-1-2.118-1s-1.222.45-.882 1m32.5 22.29c0 5.374 10.857 7.178 11.644 1.934.2-1.337-.562-1.767-3.399-1.917-2.011-.107-4.689-.453-5.951-.769-1.529-.384-2.294-.134-2.294.752M71.613 301.183c.289.467.944.591 1.456.274 1.308-.808 1.161-1.124-.525-1.124-.801 0-1.22.383-.931.85m-49.88 3.941c.679.684 1.486.991 1.793.683.308-.308-.247-.867-1.233-1.243-1.425-.542-1.54-.428-.56.56M.451 342.5c0 19.8.134 28.042.297 18.315.164-9.727.164-25.927.001-36S.452 322.7.451 342.5M21 308c-.901.582-1.025.975-.309.985.655.008 1.469-.435 1.809-.985.767-1.242.421-1.242-1.5 0m-16.128 5.75c-1.243 1.586-1.208 1.621.378.378C6.916 312.821 7.445 312 6.622 312c-.207 0-.995.788-1.75 1.75m285.467.079c-.629 1.006-3.984 5.169-7.458 9.25-3.473 4.082-5.272 6.523-3.998 5.425 1.275-1.097 4.589-4.795 7.365-8.217 2.777-3.422 5.357-6.031 5.734-5.798.376.232.685-.232.685-1.033 0-1.982-.953-1.83-2.328.373m-233.326 8.148c-.693 1.294-.69 2.104.009 2.537.565.349.963.264.884-.19-.378-2.179.233-3.208 1.594-2.686.825.317 1.5.351 1.5.076 0-1.572-3.115-1.367-3.987.263M41 323.941c0 .518.445 1.216.989 1.552.566.35.734-.051.393-.941-.665-1.732-1.382-2.049-1.382-.611m-3.667 4.135c0 1.652.268 2.647.595 2.213.328-.434.891-1.015 1.252-1.291.361-.275.093-1.271-.595-2.213-1.104-1.51-1.252-1.358-1.252 1.291M39 325.378c0 .207.788.995 1.75 1.75 1.586 1.243 1.621 1.208.378-.378-1.307-1.666-2.128-2.195-2.128-1.372m15.603.455c-.283.459.12.834.897.834s1.18-.375.897-.834c-.283-.458-.687-.833-.897-.833-.21 0-.614.375-.897.833m112.21-.15c.721.289 1.584.253 1.916-.079.332-.332-.258-.568-1.312-.525-1.165.048-1.402.285-.604.604m4.937.979c.688.278 1.813.278 2.5 0 .688-.277.125-.504-1.25-.504s-1.937.227-1.25.504m15 0c.688.278 1.813.278 2.5 0 .688-.277.125-.504-1.25-.504s-1.937.227-1.25.504M314 326.43c0 .275.9.981 2 1.57 1.1.589 2 .845 2 .57s-.9-.981-2-1.57c-1.1-.589-2-.845-2-.57m-277.921 7.153c.048 1.165.285 1.402.604.605.289-.722.253-1.585-.079-1.917-.332-.332-.568.258-.525 1.312m14.878 5.167c1.858 2.337 3.558 4.25 3.778 4.25.707 0-3.578-5.627-5.398-7.089-.967-.776-.237.502 1.62 2.839m-16.226-.83c-.435 1.663-.305 2.054.437 1.312.582-.582.86-1.647.62-2.369-.25-.749-.703-.295-1.057 1.057m12.222-.594c1.226 1.578 1.223 1.95-.017 2.735-.79.5-.986.908-.436.908 2.876 0 3.485-1.67 1.291-3.543-1.992-1.7-2.09-1.712-.838-.1m105.694 2.197c.474 1.234.326 1.579-.466 1.089-.758-.469-.951-.176-.558.847.426 1.112.156 1.394-.935.975-2.092-.803-4.359 3.299-2.721 4.923.866.86.986.707.481-.618-.5-1.313-.28-1.612.864-1.173.974.374 1.983-.261 2.761-1.738.675-1.281 1.63-2.593 2.124-2.916.494-.324.191-1.175-.673-1.892-1.346-1.117-1.471-1.045-.877.503M149 344c0 .55.45 1 1 1s1-.45 1-1-.45-1-1-1-1 .45-1 1m113 5c-1.175 1.65-1.911 3-1.636 3 .275 0 1.461-1.35 2.636-3s1.911-3 1.636-3c-.275 0-1.461 1.35-2.636 3m-208-1.622c0 .207.788.995 1.75 1.75 1.586 1.243 1.621 1.208.378-.378-1.307-1.666-2.128-2.195-2.128-1.372m4.128 1.285c1.075 1.303 1.1 1.754.115 2.085-1.341.452.14 2.898 5.299 8.752 1.454 1.651.974.618-1.069-2.297-5.32-7.592-3.522-7.636 2.052-.05 5.255 7.152 6.786 8.832 3.91 4.292-4.308-6.802-9.987-14.371-10.807-14.407-.48-.021-.255.71.5 1.625m-4.617 1.714c.946 1.443 1.908 2.623 2.139 2.623.724 0-1.605-3.854-2.759-4.567-.604-.374-.325.501.62 1.944m-23.525 1.873c-.007.688-.299 2.375-.647 3.75-.904 3.564.542 1.903 1.622-1.864.548-1.912.536-3.136-.031-3.136-.511 0-.936.563-.944 1.25m110.86.617c-2.737 3.197-3.204 4.645-.848 2.633 2.11-1.803 2.276-1.822 1.683-.198-.408 1.117-.267 1.56.371 1.166.566-.35.756-1.498.421-2.552-.334-1.054-.165-1.916.376-1.916.542 0 1.164.54 1.384 1.199.27.811.586.715.974-.295.818-2.134-2.542-2.162-4.361-.037m-80.876 6.077c.573 1.07 1.535 2.25 2.139 2.623.604.374.325-.501-.62-1.944-2.002-3.055-3.038-3.518-1.519-.679m74.711 1.116c-1.432 1.673-1.379 1.796.708 1.625 3.411-.28 6.326-3.435 3.173-3.435-1.283 0-3.029.815-3.881 1.81M253 358.697c0 .567-1.202 2.232-2.67 3.701-1.47 1.469-1.947 2.392-1.06 2.052 1.915-.735 5.139-5.375 4.31-6.203-.319-.319-.58-.117-.58.45M136 360c0 .55.45 1 1 1s1-.45 1-1-.45-1-1-1-1 .45-1 1m-71.489 5.377c.946 1.443 1.908 2.623 2.139 2.623.724 0-1.605-3.854-2.759-4.567-.604-.374-.325.501.62 1.944m66.935-1.29c-.369.598-.222 1.537.328 2.087.667.667 1.256.586 1.768-.241.529-.858.357-.989-.557-.423-.962.594-1.15.362-.686-.846.718-1.871.174-2.238-.853-.577m217.549 1.163c.59.688 1.755 2.15 2.588 3.25 1.273 1.682 1.263 1.483-.06-1.25-.866-1.788-2.031-3.25-2.588-3.25-.653 0-.632.445.06 1.25M68.85 367.582c.992 1.985 4.15 5.178 4.15 4.196 0-.257-1.168-1.774-2.596-3.372-1.732-1.939-2.249-2.213-1.554-.824m57.157 2.405c-1.228 2.294 1.944 2.211 4.263-.112 1.497-1.499 1.431-1.625-.855-1.625-1.363 0-2.897.781-3.408 1.737M127 370c0 .55.45 1 1 1s1-.45 1-1-.45-1-1-1-1 .45-1 1m-59 1.393c0 .216.698.661 1.552.989.89.341 1.291.173.941-.393-.587-.951-2.493-1.406-2.493-.596m-43.921 3.19c.048 1.165.285 1.402.604.605.289-.722.253-1.585-.079-1.917-.332-.332-.568.258-.525 1.312m98.367-.496c-1.029 1.665.863 2.976 2.562 1.777 1.22-.861 1.153-.942-.369-.447-1.38.449-1.712.214-1.282-.906.671-1.747.077-2.023-.911-.424M73 378c.589 1.1 1.295 2 1.57 2 .275 0 .019-.9-.57-2s-1.295-2-1.57-2c-.275 0-.019.9.57 2m-65 1.031c0 .533.675.969 1.5.969s1.5-.177 1.5-.393c0-.216-.675-.652-1.5-.969-.825-.316-1.5-.139-1.5.393m109.43.083c-.294.474.164.595 1.018.268.854-.328 1.552-.098 1.552.511s-.525 1.107-1.167 1.107c-.641 0-.862.305-.489.677.372.373 1.537-.246 2.589-1.375 1.893-2.031 1.887-2.052-.529-2.052-1.342 0-2.681.389-2.974.864M.462 425.5c-.001 25.85.129 36.568.287 23.819.158-12.75.158-33.9 0-47C.591 389.218.462 399.65.462 425.5M76 381c-.825.533-1.05.969-.5.969s1.675-.436 2.5-.969c.825-.533 1.05-.969.5-.969s-1.675.436-2.5.969m4 3c.589 1.1 1.295 2 1.57 2 .275 0 .019-.9-.57-2s-1.295-2-1.57-2c-.275 0-.019.9.57 2m202.813-1.317c.721.289 1.584.253 1.916-.079.332-.332-.258-.568-1.312-.525-1.165.048-1.402.285-.604.604m-169.957 1.406c-.588.364.112.661 1.555.661 1.444 0 2.809-.297 3.034-.661.224-.363-.476-.66-1.556-.66s-2.445.297-3.033.66m-92.1.575c.691.279.959.988.596 1.576-.391.632-.189.777.493.355 1.745-1.078 1.384-2.605-.595-2.516-1.056.048-1.252.28-.494.585m63.742 2.457c.915 2.404-2.424 3.32-4.18 1.146-1.297-1.605-1.328-1.56-.338.483 1.276 2.633 1.955 2.754 4.579.817 1.601-1.181 1.712-1.663.632-2.75-1.082-1.088-1.202-1.035-.693.304m25.123.745c-1.61 1.779-1.567 1.853.933 1.579 1.443-.159 2.92-.62 3.284-1.026.364-.406-.176-.436-1.199-.067-1.396.503-1.717.292-1.282-.841.768-1.999.31-1.906-1.736.355m122.943-.573c.376.986.935 1.541 1.243 1.233.308-.307.001-1.114-.683-1.793-.988-.98-1.102-.865-.56.56M87 389.941c0 .518.445 1.216.989 1.552.566.35.734-.051.393-.941-.665-1.732-1.382-2.049-1.382-.611m-39.706 2.058c1.897 1.216 7.578 2.54 6.569 1.53-.326-.325-1.441-.764-2.478-.974a41.365 41.365 0 0 1-3.885-1.044c-1.835-.607-1.852-.567-.206.488M83 392c-.825.533-1.05.969-.5.969s1.675-.436 2.5-.969c.825-.533 1.05-.969.5-.969s-1.675.436-2.5.969m21.79.933c-1.552 1.812-1.539 1.924.208 1.792 1.025-.077 1.612-.547 1.305-1.044-.308-.498.061-1.297.819-1.777.758-.481.916-.88.35-.889-.565-.008-1.772.855-2.682 1.918M87.5 396c.853 1.65 1.776 3 2.051 3 .275 0-.198-1.35-1.051-3s-1.776-3-2.051-3c-.275 0 .198 1.35 1.051 3M62 397c.825.533 1.95.969 2.5.969s.325-.436-.5-.969c-.825-.533-1.95-.969-2.5-.969s-.325.436.5.969m37.564 1.707c-.542 1.425-.428 1.54.56.56.684-.679.991-1.486.683-1.793-.308-.308-.867.247-1.243 1.233m-8.628 1.463c-1.129.801-1.035.888.441.407a2.675 2.675 0 0 1 3.036.973c1.03 1.408 1.158 1.377 1.158-.286 0-2.083-2.431-2.657-4.635-1.094m237.314 1.935c-2.887 1.683-5.25 3.291-5.25 3.573 0 .555 8.893-4.39 10.45-5.811 1.695-1.547.155-.884-5.2 2.238m-239.555 1.382c.915 1.919 1.841 3.31 2.058 3.093.457-.457-2.578-6.58-3.263-6.58-.251 0 .291 1.569 1.205 3.487m41.118-1.804c.721.289 1.584.253 1.916-.079.332-.332-.258-.568-1.312-.525-1.165.048-1.402.285-.604.604m201.937.889c-1.512.821-2.75 1.703-2.75 1.96 0 .966 1.581.361 4-1.532 2.972-2.325 2.527-2.477-1.25-.428m-239.881.77c.612.738.896 1.642.631 2.008-.266.367.014.252.621-.255 1.227-1.023.355-3.095-1.302-3.095-.727 0-.711.426.05 1.342m4.572 1.232c-1.067.866-1.31 1.247-.539.847.84-.436 1.9-.045 2.647.977 1.109 1.516 1.23 1.423 1.098-.847-.172-2.976-.585-3.102-3.206-.977m227.118 2.958c-1.068.807-1.46 1.468-.873 1.468.588 0 1.629-.675 2.314-1.5 1.557-1.876 1.067-1.866-1.441.032m-227.746.151c.721.289 1.584.253 1.916-.079.332-.332-.258-.568-1.312-.525-1.165.048-1.402.285-.604.604m220.493 1.877c-2.043 1.865-2.24 2.287-.724 1.555 2.075-1.002 5.174-4.115 4.096-4.115-.311 0-1.829 1.152-3.372 2.56m-229.735 1.011c-2.285 2.286-1.928 3.062.429.929 1.1-.995 2-1.965 2-2.155 0-.743-.927-.275-2.429 1.226m174.929.29c-7.73 4.775-10.227 13.974-6.004 22.127 1.489 2.875 7.943 9.012 9.477 9.012.565 0 1.027.436 1.027.969 0 .589-4.224.826-10.75.604-9.253-.315-9.845-.249-4.25.475 3.575.463 14.767 1.099 24.872 1.413 10.104.314 18.767.816 19.25 1.114.483.299.878.121.878-.395s-6.552-1.266-14.56-1.666c-14.422-.721-18.234-1.559-8.557-1.882 6.115-.203 9.525-2.511 13.364-9.045 1.523-2.594 2.24-4.388 1.592-3.987-.791.488-.974.193-.555-.897.981-2.557-1.769-11.525-4.398-14.339-5.249-5.619-15.296-7.265-21.386-3.503M88.563 411.93c-1.67 1.846-1.663 1.909.178 1.427 1.059-.277 1.926-1.145 1.926-1.93 0-1.809-.014-1.806-2.104.503m12.77.513c0 1.098.347 1.238 1.236.499.849-.704 1.4-.691 1.759.041.287.587.406.493.264-.208-.373-1.846-3.259-2.14-3.259-.332m163.001 1.621c-9.447 4.676-9.506 17.212-.107 22.928 2.887 1.755 5.015 1.893 11.821.765 1.789-.297 7.057-5.308 6.805-6.473-.094-.431.175-1.575.598-2.542 2.244-5.13-2.962-13.957-9.265-15.707-4.909-1.363-5.049-1.349-9.852 1.029m49.416-.492c-3.738 2.028-3.511 2.873.25.928 1.65-.853 3-1.765 3-2.026 0-.643-.107-.607-3.25 1.098m-7 1.496c-2.062 1.089-3.75 2.203-3.75 2.476 0 .273 1.8-.422 4-1.544s4-2.257 4-2.52c0-.654-.007-.652-4.25 1.588M115 419c4.125 2.146 7.95 3.901 8.5 3.901.55 0-2.375-1.755-6.5-3.901s-7.95-3.901-8.5-3.901c-.55 0 2.375 1.755 6.5 3.901m-34.541-1.933c-.363.586-.389 1.336-.059 1.666.33.33.6.045.6-.634 0-.8.79-1.011 2.25-.601 1.761.496 1.924.405.75-.417-1.913-1.34-2.72-1.343-3.541-.014m184.791-.416c-3.857 1.592-.64 11.203 3.25 9.711 1.091-.419 1.5.118 1.5 1.972 0 3.32-1.944 4.463-3.641 2.142-1.657-2.266-2.775-1.363-1.865 1.506.535 1.685 1.341 2.068 3.841 1.825 3.134-.304 3.168-.365 3.423-6.307.363-8.432-2.163-12.643-6.508-10.849m9.252.721c-1.1.805-1.638 1.826-1.196 2.267.441.442 1.154.234 1.584-.461.687-1.111.625 3.054-.198 13.372-.227 2.839-.086 2.977 2.024 2 1.248-.577 2.272-1.414 2.276-1.859.004-.445-.348-.589-.783-.32-.435.269-.636-.942-.446-2.691.19-1.749-.017-5.563-.459-8.476-.77-5.071-.889-5.234-2.802-3.832m-8.315 3.878c.381 3.958 3.387 4.667 3.182.75-.203-3.866-.267-4-1.932-4-1.162 0-1.483.836-1.25 3.25m-188.976-.649c-.71.769-.849 1.399-.309 1.399 1.038 0 2.541-1.902 1.948-2.466-.192-.183-.93.297-1.639 1.067m215.539 2.971c-3.738 2.028-3.511 2.873.25.928 1.65-.853 3-1.765 3-2.026 0-.643-.107-.607-3.25 1.098M72 429.901c0 .795-.8 1.015-2.25.619-2.031-.556-2.07-.503-.404.536 1.911 1.191 4.772-.271 3.337-1.706-.375-.376-.683-.128-.683.551m254.564 4.806c-.542 1.425-.428 1.54.56.56.684-.679.991-1.486.683-1.793-.308-.308-.867.247-1.243 1.233m-262.993.864c-2.285 2.286-1.928 3.062.429.929 1.1-.995 2-1.965 2-2.155 0-.743-.927-.275-2.429 1.226m1.602 1.936c-1.324 1.684-2.58 2.316-3.823 1.925-1.774-.559-1.773-.534.018.608 1.586 1.011 2.23.772 4.25-1.58 1.31-1.524 2.382-2.926 2.382-3.116 0-.908-1.033-.117-2.827 2.163M145 436.059c0 .582.45.781 1 .441s1-.816 1-1.059-.45-.441-1-.441-1 .477-1 1.059m5 2.941c.825.533 1.95.969 2.5.969s.325-.436-.5-.969c-.825-.533-1.95-.969-2.5-.969s-.325.436.5.969m-93 4.393c0 .216.698.661 1.552.989.89.341 1.291.173.941-.393-.587-.951-2.493-1.406-2.493-.596m-.267 2.731c.679.684 1.486.991 1.793.683.308-.308-.247-.867-1.233-1.243-1.425-.542-1.54-.428-.56.56m203.267.758c0 .55.45 1.278 1 1.618.55.34 1 .168 1-.382s-.45-1.278-1-1.618c-.55-.34-1-.168-1 .382m56.507.107c-.35.566.051.734.941.393 1.732-.665 2.049-1.382.611-1.382-.518 0-1.216.445-1.552.989m-65.007 2.653-3 2.57 3.25-1.822c1.787-1.001 3.25-2.174 3.25-2.606 0-1.097-.134-1.025-3.5 1.858m5.233-1.518c.679.684 1.486.991 1.793.683.308-.308-.247-.867-1.233-1.243-1.425-.542-1.54-.428-.56.56M272.5 449c-.34.55-.141 1 .441 1s1.059-.45 1.059-1-.198-1-.441-1-.719.45-1.059 1m11.5.391c0 .214 1.575.574 3.5.799 1.925.225 3.5.049 3.5-.391 0-.439-1.575-.799-3.5-.799s-3.5.176-3.5.391m-233.476 2.534c-.362 1.141-1.03 2.075-1.484 2.075-.454 0-1.109.739-1.456 1.641-.527 1.373-.38 1.435.893.378 1.789-1.485 1.938-.736.456 2.297-1.4 2.866 2.574-1.746 4.151-4.816.946-1.843.915-1.863-.389-.25-1.953 2.414-3.006 2.2-1.649-.336.614-1.147.896-2.306.626-2.575-.269-.269-.786.444-1.148 1.586m200.919.493c-1.067.78-1.716 1.622-1.441 1.871.274.249 1.364-.389 2.423-1.418 2.277-2.214 1.755-2.454-.982-.453m11.11.497a1.116 1.116 0 0 0 .362 1.532c.521.322 1.21.159 1.532-.362a1.116 1.116 0 0 0-.362-1.532 1.116 1.116 0 0 0-1.532.362m13.447.026c0 .518.445 1.216.989 1.552.566.35.734-.051.393-.941-.665-1.732-1.382-2.049-1.382-.611m3.079.642c.048 1.165.285 1.402.604.605.289-.722.253-1.585-.079-1.917-.332-.332-.568.258-.525 1.312M283 453.5c-.718.865-.815 1.5-.229 1.5.558 0 1.274-.675 1.591-1.5.316-.825.419-1.5.229-1.5-.19 0-.906.675-1.591 1.5m-17 .5c0 .55.675 1 1.5 1s1.5-.45 1.5-1-.675-1-1.5-1-1.5.45-1.5 1m4.584.641c-.498 1.298-.344 1.404.735.509.751-.623 1.661-.837 2.023-.475.362.362.658.133.658-.508 0-1.77-2.699-1.395-3.416.474m36.875 2.426c-.363.586-.445 1.281-.183 1.543s.743-.218 1.069-1.067c.676-1.762.1-2.072-.886-.476m-50.097 1.433c-.893 2.327.365 4.5 2.607 4.5 2.503 0 2.875-4.462.449-5.393-2.217-.851-2.409-.795-3.056.893M236 459c-.901.582-1.025.975-.309.985.655.008 1.469-.435 1.809-.985.767-1.242.421-1.242-1.5 0m22.229 1.188c.618 1.854 2.771 2.161 2.771.395 0-.871-.712-1.583-1.583-1.583s-1.406.534-1.188 1.188m4.34 2.302c-1.122 2.684-1.875 3.343-3.264 2.853-1.476-.521-1.577-.392-.555.71.972 1.048 1.517 1.08 2.45.147 1.633-1.633 2.8-1.508 2.8.3 0 2.169 2.306 1.842 3.792-.539 1.187-1.9 1.386-1.926 2.935-.377 1.548 1.548 1.707 1.534 2.343-.211.865-2.373-.879-4.776-2.494-3.436-.787.653-1.549.336-2.376-.988-1.838-2.943-4.006-2.35-5.631 1.541M45 461c.825.533 1.95.969 2.5.969s.325-.436-.5-.969c-.825-.533-1.95-.969-2.5-.969s-.325.436.5.969m235.252 2.5c.011 2.2.216 2.982.455 1.738.239-1.244.23-3.044-.02-4s-.446.062-.435 2.262M265 463c0 1.289.506 1.998 1.25 1.75.688-.229 1.25-1.017 1.25-1.75 0-.733-.562-1.521-1.25-1.75-.744-.248-1.25.461-1.25 1.75m10.1 1.677.099 2.823.765-2.5.765-2.5 1.126 2.5 1.125 2.5-.24-2.49c-.358-3.715-3.771-4.028-3.64-.333m6.97-.493c.066 2.176.12 2.195.895.316.786-1.905.874-1.882 1.867.5l1.041 2.5.163-2.5.163-2.5.852 2.5.852 2.5-.201-2.5c-.288-3.561-5.739-4.351-5.632-.816M227 464.5c-1.375.786-2.024 1.445-1.441 1.465.582.019 1.932-.626 3-1.433 2.469-1.868 1.68-1.884-1.559-.032m6-.5c-.901.582-1.025.975-.309.985.655.008 1.469-.435 1.809-.985.767-1.242.421-1.242-1.5 0m-194 5c-.589 1.1-.845 2-.57 2s.981-.9 1.57-2c.589-1.1.845-2 .57-2s-.981.9-1.57 2m182-.508c-1.375.781-3.4 1.194-4.5.916-1.791-.451-1.819-.39-.272.581 1.594 1.002 7.772-.998 7.772-2.515 0-.651-.157-.598-3 1.018" fill-rule="evenodd"/>
<path fill="#364a76" stroke="#364a76" d="M175 23.904c-3.025.332-7.474 1.639-9.886 2.904-2.412 1.266-4.985 2.072-5.718 1.79-.733-.281-1.598-.08-1.923.446-.325.526-1.545.956-2.711.956-2.279 0-8.137 1.673-11.053 3.157-.985.501-2.241.632-2.793.291-.551-.341-2.67.63-4.709 2.156-11.871 8.889-16.177 17.992-13.777 29.128.504 2.341.121 3.037-2.482 4.509-1.693.957-2.816 2.163-2.496 2.681.319.517.086 1.246-.519 1.62-1.468.907-6.883 12.708-8.698 18.957-1.632 5.618-2.528 33.457-1.371 42.601.668 5.283.593 5.576-1.328 5.164-1.663-.357-1.761-.245-.536.614 1.037.727 1.484 2.751 1.448 6.556-.029 3.027.134 5.317.362 5.089.997-.996 3.174-13.798 3.81-22.393l.692-9.371 4.844-2.013c2.664-1.107 4.901-2.515 4.971-3.129.07-.614.209-6.067.309-12.117.235-14.082 1.526-18.69 5.974-21.314 2.397-1.415 3.692-1.684 4.449-.927.587.587 2.659 1.008 4.604.935 1.946-.073 3.537.319 3.537.872 0 .647.718.62 2.021-.077 1.111-.595 2.566-.744 3.232-.333 1.335.825 2.542.99 10.994 1.498 3.161.19 5.749.684 5.75 1.096.002.413.341.679.753.591.833-.176 3.9.859 6.334 2.137 2.041 1.071 9.304.607 14.416-.921 2.2-.658 7.15-1.588 11-2.065 3.85-.478 9.628-1.429 12.84-2.114 4.549-.97 6.817-.983 10.264-.061 2.434.65 5.274 1.183 6.312 1.183 3.906 0 6.282 6.495 6.585 17.998.152 5.776.326 10.966.387 11.534.062.568 2.812 3.783 6.112 7.145 5.639 5.745 6.003 6.405 6.049 10.968.073 7.163 4.483 31.699 5.775 32.13 2.328.776 2.505 6.991.28 9.82-1.728 2.196-2.104 4.061-2.104 10.426 0 4.816-.549 8.808-1.449 10.543-.797 1.536-1.203 3.191-.902 3.677.301.487-.252 1.767-1.227 2.846-1.361 1.503-1.5 2.235-.598 3.137.647.647 1.169 1.648 1.161 2.226-.009.577-.396.45-.861-.284-.569-.897-.816-.406-.756 1.5.049 1.559-.271 4.184-.71 5.834-.469 1.76-.432 2.587.089 2 .918-1.034 2.657-8.009 3.74-15 1.121-7.236 1.249-7.403 5.308-6.904 3.097.381 3.334.292 1.447-.541-2.803-1.237-4.767-5.318-3.725-7.741.429-.998.675-2.874.546-4.17-.139-1.404.795-3.431 2.313-5.014 1.4-1.462 2.796-4.227 3.1-6.144a347.91 347.91 0 0 1 1.161-6.798c.515-2.802.282-3.396-1.514-3.866-1.168-.305-2.123-.953-2.123-1.439 0-.485-.954-.883-2.12-.883-1.966 0-2.09-.424-1.699-5.83.232-3.206.977-6.469 1.655-7.25.678-.781 1.843-2.303 2.59-3.382 1.16-1.676 1.594-1.767 2.977-.619 1.489 1.236 1.483 1.444-.076 2.584-1.583 1.158-1.551 1.724.492 8.618 1.203 4.058 2.186 8.815 2.184 10.57-.006 6.401 1.844 4.118 2.522-3.112 1.322-14.115-4.866-24.365-11.147-18.465l-2.251 2.115.599-2.365c.329-1.3 1.038-2.654 1.574-3.008 1.218-.804 1.528-18.529.543-30.993-1.298-16.415-5.833-30.999-11.744-37.766-1.436-1.644-2.099-3.765-2.099-6.713 0-9.536-5.428-18.769-12.55-21.349-11.253-4.077-18.259-6.893-21.021-8.449C192.568 26.03 191 25.211 191 25.618c0 .249-.787.046-1.75-.451-2.767-1.429-8.283-1.917-14.25-1.263m-49.615 111.282a384.126 384.126 0 0 0-3.383 2.582c-.66.524 3.084 3.236 4.439 3.217.583-.009.384-.501-.441-1.095-1.206-.867-1.108-.941.5-.375 1.1.387 4.475.907 7.5 1.156 6.637.546 11.442 1.952 12.973 3.796 1.481 1.785-.049 2.207-10.973 3.03-19.483 1.467-20.106 7.776-1 10.124l3.5.43-3.441-2.127-3.441-2.127 2.441-1.876c3.087-2.373 3.941-2.389 3.941-.076 0 2.364 3.072 5.155 5.674 5.155 2.147 0 5.326-2.882 5.326-4.829 0-1.859 1.461-1.373 4 1.329 2.191 2.332 2.22 2.506.424 2.586-1.243.055-.87.4 1.052.974 3.68 1.098 5.426-.265 3.432-2.68-1.221-1.478-1.208-1.635.092-1.175 1.74.615 7.001-2.144 6.999-3.671-.002-1.483-5.04-7.082-6.105-6.784-.492.137-.894-.152-.894-.643s-.698-1.161-1.552-1.489c-1.06-.406-1.31-.202-.789.643.42.682-.441.452-1.912-.511-1.472-.963-3.427-1.75-4.344-1.75-.917 0-3.206-.951-5.088-2.114-1.881-1.163-3.693-1.842-4.026-1.509-.333.333-1.295.047-2.139-.636-1.224-.99-1.382-.988-.783.009 1.055 1.756-1.19 1.57-3.01-.25-2.126-2.126-5.613-1.859-8.972.686m87.615.692c0 .711-2.311 1.122-6.309 1.122-3.999 0-7.019.538-8.25 1.468-1.067.808-2.534 1.483-3.258 1.5-.724.018-2.789 1.155-4.588 2.527-1.799 1.373-3.521 2.245-3.827 1.94-.306-.306-1.624.512-2.929 1.817l-2.373 2.373 2.183 2.327c1.275 1.359 3.443 2.373 5.213 2.437 1.91.07 2.68.462 2.084 1.061-2.206 2.216-.915 3.549 3.304 3.414 2.338-.075 3.238-.331 2-.57-3.016-.581-2.818-1.371 1.017-4.063 2.96-2.076 3.263-2.119 3.586-.5.195.973 1.026 2.528 1.848 3.456.822.928 1.239 2.1.927 2.606-.894 1.447 4.672.12 6.622-1.579.963-.838 1.75-2.354 1.75-3.369 0-2.172.131-2.198 3.453-.684 3.423 1.559 3.207 3.138-.703 5.142l-3.25 1.667 4-.538c6.178-.831 14.288-3.436 14.788-4.75 1.261-3.316-1.16-5.682-5.814-5.682-9.983 0-23.661-2.242-22.255-3.648 1.58-1.58 10.326-3.352 16.54-3.352 3.874 0 4.316-.205 3.241-1.5-.685-.825-1.865-1.5-2.622-1.5-.758 0-1.378-.402-1.378-.894 0-.501 1.789-.439 4.08.142 2.825.717 3.67 1.295 2.75 1.879-1.659 1.051-.004 1.005 2.67-.075 2.154-.871 2.117-.898-5-3.668-3.017-1.174-7.452-1.121-6.734.081.34.569-.143.417-1.074-.337-1.103-.895-1.692-.982-1.692-.25m-112.994 13.903c.006 5.686.015 5.702 1.5 2.855 1.914-3.67 1.911-7.262-.006-7.998-1.226-.47-1.499.469-1.494 5.143M142 150c0 .55.477 1 1.059 1s.781-.45.441-1-.816-1-1.059-1-.441.45-.441 1m3 1c0 .55.45 1 1 1s1-.45 1-1-.45-1-1-1-1 .45-1 1m59 1c0 .55.45 1 1 1s1-.45 1-1-.45-1-1-1-1 .45-1 1m3.5 0c-.34.55-.141 1 .441 1s1.059-.45 1.059-1-.198-1-.441-1-.719.45-1.059 1m49.679 22.282c-2.026 4.886-2.873 8.745-1.653 7.525.834-.833 4.615-12 4.203-12.412-.204-.204-1.352 1.995-2.55 4.887m-92.929 10.487c.448 1.379-3.993 6.231-5.703 6.231-.916 0-1.387.45-1.047 1 1.233 1.995 5.108.939 7.796-2.125 2.137-2.434 2.49-3.428 1.601-4.5-1.218-1.466-3.064-1.889-2.647-.606m15.75 1.724c-2.091 2.232-3.195 2.613-6.75 2.331-4.466-.356-5.021.005-3.05 1.976 1.709 1.709 6.373 1.484 8.254-.397 1.809-1.809 4.546-1.208 4.546.998 0 .805.837 1.73 1.859 2.054 2.203.699 5.141-.255 5.141-1.669 0-.55-.716-.725-1.59-.39-.875.336-2.083.306-2.684-.065-.678-.42-.36-.944.84-1.382 1.767-.644 1.7-.814-.77-1.966-1.486-.694-2.836-1.913-3-2.71-.215-1.052-.98-.718-2.796 1.22M104.5 193c-.34.55.11 1 1 1s1.34-.45 1-1c-.34-.55-.79-1-1-1-.21 0-.66.45-1 1m56.99 5.016c-.346.559-1.047.758-1.559.441-.512-.316-.931-.125-.931.425 0 1.845 2.254 2.416 3.158.8a2.227 2.227 0 0 1 2.618-1.046c1.463.469 1.496.389.224-.526-1.886-1.357-2.716-1.379-3.51-.094m21.01.984c-2.323.998-2.13 1.125 2.276 1.494 2.693.226 3.072.028 2.128-1.11-1.295-1.56-1.604-1.587-4.404-.384m-32.885 4.561c-.347.905-1.27 1.402-2.05 1.102-.78-.299-1.945.09-2.588.864-.643.775-1.688 1.311-2.323 1.191-1.331-.252-2.049 5.214-.912 6.941.977 1.484 10.165 2.084 11.072.723 1.373-2.058 4.91-2.593 16.149-2.443 6.304.084 11.254-.053 11-.304-.56-.553-13.554-1.571-24.213-1.898-8.146-.249-8.826-.756-6.148-4.579.881-1.258 1.387-2.503 1.124-2.766-.264-.263-.763.263-1.111 1.169m49.41 3.004c.536 1.411.975 2.648.974 2.75-.001.102-3.263.261-7.25.353-9.048.21-15.111 2.144-7.249 2.313 2.75.059 6.8.755 9 1.548 11.319 4.08 19.342-2.522 9.095-7.483-5.404-2.616-5.747-2.577-4.57.519m40.494 12.374c-.365 1.15-1.061 1.844-1.547 1.544-.487-.301-1.72 1.276-2.742 3.505-1.022 2.228-2.154 3.755-2.516 3.392-.363-.362-2.211.524-4.107 1.97-2.3 1.755-3.582 2.224-3.853 1.411-.296-.888-1.123-.749-3.045.51-3.12 2.045-4.109 2.199-3.076.479.517-.861.229-.827-.928.112-.924.749-2.326 1.114-3.116.811-.953-.366-1.798.489-2.515 2.546-1.278 3.665-3.316 5.266-13.398 10.527-1.553.811-3.032 2.019-3.288 2.685-.27.703-1.653 1.037-3.294.796-1.556-.228-4.351.376-6.212 1.343-6.074 3.157-34.882 1.003-34.882-2.609 0-.528-.562-.962-1.25-.962-.687-.001-2.546-1.116-4.13-2.479-1.585-1.362-3.218-2.268-3.63-2.014-.412.255-2.829-.642-5.37-1.993-2.978-1.584-4.625-2.023-4.635-1.235-.01.762-.292.846-.75.222-.404-.55-1.522-1.132-2.485-1.294-2.38-.399-2.254 2.462.176 3.98 1.789 1.117 1.807 1.3.25 2.582-.922.759-1.144 1.114-.494.789 1.355-.678 4.318 3.097 4.318 5.502 0 .888 3.077 4.835 6.839 8.772 3.761 3.937 6.574 7.458 6.25 7.824-.324.366-.077.373.548.016s1.73.067 2.456.941c1.765 2.127 11.319 8.287 16.907 10.902 5.519 2.583 16.529 2.641 22.245.117 2.06-.91 3.992-1.602 4.293-1.539 1.174.247 6.462-2.383 6.462-3.213 0-.484.649-.879 1.443-.879 1.919 0 8.557-3.955 8.557-5.099 0-.495.338-.789.75-.651.412.137 1.717-.65 2.9-1.75 8.155-7.587 10.675-10.359 11.817-13 .714-1.65 2.363-4.116 3.665-5.481 1.303-1.364 2.256-2.827 2.118-3.25-.137-.423.234-.769.826-.769.64 0 .958-1.646.784-4.057-.161-2.232.208-4.369.82-4.75.612-.381 1.622-2.587 2.244-4.901.622-2.314 1.599-4.497 2.171-4.851.573-.354.791-1.296.485-2.094-.312-.812-.121-1.181.433-.839.975.603 3.457-4.371 2.606-5.222-.24-.24-.735.504-1.1 1.653M167 224.094c0 .498.702.906 1.559.906s1.281.45.941 1c-.34.55.364 1 1.563 1 1.751 0 1.954-.275 1.027-1.392-1.397-1.683-5.09-2.782-5.09-1.514m10.001.156c-.001.412 1.124.75 2.499.75s2.5-.402 2.5-.894-1.125-.83-2.499-.75c-1.375.079-2.5.482-2.5.894M222 232c-.901.582-1.025.975-.309.985.655.008 1.469-.435 1.809-.985.767-1.242.421-1.242-1.5 0m-99 3.941c0 .518.445 1.216.989 1.552.566.35.734-.051.393-.941-.665-1.732-1.382-2.049-1.382-.611M234.349 249c0 4.675.173 6.588.383 4.25.211-2.338.211-6.162 0-8.5-.21-2.338-.383-.425-.383 4.25m-121.806 9.68c-1.626.881-5.157 3.34-7.846 5.466-2.689 2.125-5.971 4.136-7.293 4.468-1.322.331-2.404 1.127-2.404 1.767 0 .667-1.602 1.193-3.75 1.23-5.147.091-54.25 17.677-54.25 19.43 0 .453-.821 1.085-1.824 1.403-1.003.318-2.69 1.361-3.75 2.317-1.059.957-3.839 3.038-6.176 4.625-5.272 3.58-5.286 3.476 1.006 7.114 2.87 1.659 6.89 5.235 8.996 8 6.274 8.24 10.982 15.599 10.37 16.211-.316.316-.859-.164-1.205-1.068-.347-.904-1.123-1.643-1.724-1.643-.731 0-.696.397.107 1.2 1.622 1.622 1.51 2.467-.427 3.21-.939.361-2.118-.046-2.788-.962-.958-1.31-1.558-.222-3.438 6.232a1607.094 1607.094 0 0 1-4.098 13.82c-4.77 15.724-6.112 20.456-7.427 26.198l-1.42 6.198 7.149 2.247c3.932 1.237 7.599 2.335 8.149 2.441.55.107 3.7.951 7 1.877 3.3.925 6.563 1.725 7.25 1.777.688.053 1.25.372 1.25.711 0 .338 1.192.713 2.649.834s3.257.724 4 1.341c.743.616 1.351.829 1.351.473 0-.357 1.404.078 3.121.965 1.716.888 4.133 1.798 5.37 2.022 1.238.225 4.671 1.485 7.63 2.802 9.341 4.156 13.379 4.257 9.355.233-1.364-1.365-1.303-1.641.586-2.652 2.359-1.263 2.217-1.331 3.879 1.861.795 1.526 1.761 2.117 2.806 1.716.876-.337 1.968-.034 2.426.672.543.837.745.414.58-1.216-.183-1.809.209-2.465 1.418-2.374.919.069 1.467-.406 1.217-1.056-.249-.65.812-2.308 2.357-3.685 1.546-1.377 3.817-3.784 5.047-5.347 1.23-1.564 2.508-2.571 2.841-2.238.333.332-.123 1.333-1.014 2.224-.89.89-1.605 1.924-1.587 2.297.017.374 1.165-.61 2.551-2.186 1.386-1.576 2.803-2.582 3.15-2.235.558.558-.67 2.055-8.066 9.838-1.009 1.061-2.13 1.632-2.492 1.27-.362-.362.125-1.097 1.083-1.633s1.742-1.42 1.742-1.964-.912-.139-2.027.899c-1.114 1.039-1.769 2.559-1.454 3.379.315.82-.123 2.068-.973 2.773-.851.706-1.539 2.015-1.531 2.91.01 1.003.298 1.216.75.555 1.409-2.057 4.23-2.48 4.305-.646.059 1.434.213 1.387.93-.281.792-1.843.865-1.854.93-.143.045 1.19.586 1.659 1.507 1.305.835-.32 1.625.159 1.884 1.143.304 1.152.484.94.563-.662.084-1.709-.297-2.199-1.384-1.781-.825.316-1.5.139-1.5-.393 0-.533 1.013-1.003 2.25-1.046 1.237-.042 3.15-.244 4.25-.449 2.564-.479 8.527-1.243 15.5-1.987 3.025-.323 6.963-.81 8.75-1.082 2.478-.378 3.25-.129 3.25 1.05 0 .85.675 1.545 1.5 1.545s1.5-.675 1.5-1.5.563-1.545 1.25-1.599c2.965-.235 6.426-.785 8.75-1.39 1.375-.358 4.792-.61 7.594-.56 4.481.079 21.411-1.961 28.406-3.423 1.375-.287 3.738-.619 5.25-.738 1.512-.118 2.75-.474 2.75-.79 0-1.231 6.002-1 6.07.234.039.696.457.366.93-.734.735-1.71.87-1.746.93-.25.038.962.506 1.75 1.039 1.75.532 0 .709-.675.393-1.5-.436-1.135.18-1.5 2.531-1.5 1.709 0 3.107.45 3.107 1s1.012.948 2.25.884c1.693-.087 1.817-.229.5-.573-2.981-.779-1.932-1.909 2-2.154 2.063-.129 4.65-.407 5.75-.619 1.1-.212 3.012-.419 4.25-.461 1.238-.043 2.25-.557 2.25-1.144 0-.588 2.018-3.625 4.485-6.75 2.466-3.126 5.279-6.739 6.25-8.03a102.83 102.83 0 0 1 3.765-4.647c1.1-1.265 2.901-3.359 4.002-4.653a9464.78 9464.78 0 0 1 10.566-12.353c4.71-5.5 9.626-11.575 10.925-13.5 1.299-1.925 3.07-4.218 3.935-5.095.864-.877 4.947-5.747 9.072-10.822 6.196-7.624 8.543-9.731 13.5-12.12 10.887-5.248 23.666-8.015 27.51-5.958 1.227.657 1.95.739 1.605.182-.98-1.587-15.84-8.965-25.812-12.817-9.69-3.742-39.316-16.794-41.803-18.417-.825-.538-3.502-1.895-5.95-3.016-2.447-1.12-6.591-4.04-9.207-6.487-5.295-4.953-8.493-5.9-7.429-2.2.356 1.238.726 5.962.823 10.5.097 4.538.465 8.25.818 8.25.353 0 1.364 1.839 2.247 4.087 3.779 9.622-9.666 27.356-27.767 36.622-12.858 6.584-17.172 7.657-31.035 7.724-14.361.07-18.284-.9-33.5-8.277-16.575-8.037-35.44-26.796-33.231-33.045.27-.764.047-1.115-.495-.78-.593.366-.786-.432-.485-2.01.345-1.804.145-2.398-.644-1.911-.63.39-1.145.231-1.145-.351s.397-1.059.883-1.059c.485 0 1.203-3.488 1.595-7.75.402-4.372 1.339-8.453 2.148-9.363 4.223-4.745 1.705-7.339-4.083-4.207m-25.352 18.438c-3.613 4.44-4.832 8.015-2.175 6.372.751-.464 4.829-6.158 7.335-10.24 2.017-3.286-1.462-.679-5.16 3.868m-7.976 9.435c-1.256 1.939-1.974 4.027-1.595 4.641.379.613.241.838-.306.5-1.17-.723-3.651 2.508-8.299 10.806-1.848 3.3-4.657 7.916-6.241 10.258-1.585 2.343-2.599 4.716-2.253 5.275.345.559.088.893-.572.742-.659-.151-1.426.35-1.704 1.114-.338.932-.082 1.128.78.596.848-.525 1.038-.397.56.377-.398.644-1.118.927-1.6.629-.482-.298-2.754 2.223-5.048 5.602-2.75 4.049-4.43 5.727-4.928 4.922-.666-1.078-3.593-.322-5.804 1.499-.474.391 5.919 10.92 7.069 11.643.574.362 1.648.426 2.385.143.738-.282 1.341.011 1.341.652s-.45.888-1 .548c-.55-.34-1-.346-1-.014 0 .753 9.079 14.109 11.939 17.563 1.161 1.402 3.582 4.777 5.38 7.5 2.334 3.534 3.83 4.867 5.226 4.659 1.461-.218 1.613-.06.602.623-1.929 1.303 2.676 9.438 4.853 8.573.825-.328 2.034-.815 2.687-1.083.659-.27 2.139 1.379 3.324 3.701 1.175 2.303 1.712 3.925 1.193 3.604-.519-.321-1.507-1.943-2.195-3.605-1.433-3.459-1.893-3.607-4.568-1.469-1.867 1.493-1.846 1.528.559.934 1.741-.43 2.083-.328 1.128.333-1.12.776-.845 1.891 1.5 6.065 3.209 5.714 3.228 5.725 5.931 3.564 1.867-1.493 1.846-1.528-.559-.934-1.928.476-2.157.377-1-.433 2.332-1.633 2.911-1.335 4.701 2.419 2.561 5.369 4.685 4.082 5.776-3.5.356-2.475 1.262-6.975 2.013-10 1.309-5.268 5.245-23.771 6.169-29 .243-1.375 1.055-5.2 1.805-8.5.749-3.3 1.622-7.679 1.941-9.731.318-2.053 1.073-5.878 1.677-8.5.605-2.623 1.268-7.244 1.474-10.269.364-5.354.324-5.288-1.527 2.5-1.045 4.4-3.478 15.875-5.405 25.5-1.928 9.625-4.655 22.823-6.059 29.328-1.405 6.506-2.736 12.806-2.958 14-.222 1.195-.731 3.895-1.131 6.001l-.728 3.829-4.293-6.829c-2.361-3.756-5.151-7.954-6.201-9.329-1.05-1.375-2.972-4.416-4.27-6.758-1.888-3.405-2.773-4.142-4.422-3.684-1.426.396-1.657.291-.748-.341 1.236-.86-3.418-10.653-5.806-12.217-.421-.275-3.407-4.143-6.636-8.597-3.23-4.453-7.141-9.711-8.692-11.685-2.356-3-2.636-3.932-1.703-5.674.613-1.147.862-2.495.553-2.996-.309-.5-.036-1.235.608-1.633.781-.483.901-.288.362.585-.551.892-.42 1.068.414.553.672-.415.983-1.379.69-2.142-.293-.763-.026-1.28.592-1.149 1.454.308 8.829-10.372 8.288-12-.227-.681.134-1.131.802-1s1.152-.545 1.077-1.501c-.078-.989.319-1.458.92-1.086.665.411.813.017.398-1.063-.372-.969-.25-1.464.28-1.136 1.248.771 3.325-3.204 2.431-4.651-.414-.669-.256-.859.383-.464 1.303.805 12.578-16.98 11.683-18.428-.333-.54-.011-.859.718-.708.728.151 1.324-.362 1.324-1.142 0-2.721-2.018-2.029-4.285 1.47m178.99-.179c1.262 1.306 3.007 3.219 3.877 4.25 3.979 4.718 26.848 22.779 27.728 21.9.37-.371.002-1.051-.818-1.511-.821-.461-2.468-1.665-3.661-2.675-1.193-1.011-3.359-2.71-4.813-3.776-1.455-1.065-3.48-2.64-4.501-3.5a1167.42 1167.42 0 0 0-6.091-5.062c-2.329-1.925-6.05-5.413-8.27-7.75-2.219-2.337-4.42-4.25-4.891-4.25-.471 0 .177 1.068 1.44 2.374M24 295.669c-8.381 4.049-9.229 4.691-7.201 5.446 1.89.704 3.726-.12 10.309-4.629 9.703-6.645 9.218-6.773-3.108-.817M4.5 306c-1.384.908-2.212 1.954-1.841 2.325.371.371-.076.675-.992.675C.383 309 0 309.939 0 313.087v4.086l6.25-5.203c3.438-2.861 6.382-5.546 6.543-5.966.619-1.612-5.836-1.616-8.293-.004m310-1.391c-3.693.883-16.151 5.329-18.834 6.72-2.843 1.475-18.183 19.336-27.166 31.63-1.805 2.47-8.148 9.822-15.854 18.374-1.569 1.742-4.044 4.742-5.5 6.666-1.455 1.925-3.445 4.384-4.421 5.465-.976 1.081-1.543 2.567-1.261 3.303.282.735.096 1.079-.413.764-.51-.315-1.742.571-2.739 1.968a106.773 106.773 0 0 1-3.568 4.681c-2.47 3.01-2.294 3.038 10.303 1.637 8.884-.988 11.393-.996 11.713-.037.224.671 1.832 1.153 3.573 1.07 3.024-.143 3.043-.169.417-.566-2.745-.416-3.869-1.911-1.5-1.995 4.089-.146 18.36-1.595 18.924-1.923.371-.215.881.403 1.134 1.372.377 1.442.481 1.47.576.153.098-1.355 2.206-1.715 13.366-2.279 18.259-.924 29.878-1.713 32.25-2.189 1.1-.221 3.229-.683 4.732-1.026 3.657-.834 7.768.29 7.768 2.126 0 1.06.929 1.412 3.25 1.231 2.624-.205 3.25.115 3.25 1.662 0 2.494-4.754 3.22-7.676 1.173-1.795-1.257-2.523-1.282-4.723-.161-1.466.747-8.056 1.62-15.101 2.001-14.5.783-41.133 2.559-45.5 3.033-1.65.18-6.6.632-11 1.005-4.4.373-8.675.843-9.5 1.044-.825.202-4.425.65-8 .996-7.102.689-11.028 1.227-15.25 2.09-1.899.388-2.755.151-2.765-.768-.011-.921-.241-.984-.75-.205-.857 1.311-4.382 2.116-12.735 2.91-3.3.314-6.751.79-7.669 1.06-1.037.304-1.845-.189-2.134-1.302-.431-1.661-.473-1.664-.581-.042-.064.962-.566 1.806-1.116 1.875-.55.069-1.338.218-1.75.332-.412.113-2.036.568-3.607 1.01-2.047.576-3.107.411-3.735-.582-.724-1.143-.88-1.116-.893.152-.01.987-1.09 1.619-3.015 1.766-1.65.126-3-.228-3-.787s-.675-1.016-1.5-1.016-1.5.624-1.5 1.387c0 .776-1.321 1.58-3 1.826-1.65.242-3 .069-3-.386s.45-.827 1-.827 1-.675 1-1.5-.477-1.5-1.059-1.5-.781.45-.441 1-.069 1-.91 1c-.947 0-1.308.57-.952 1.5.331.861-.002 1.545-.781 1.606-.746.059-5.407.279-10.357.491-4.95.211-9.675.65-10.5.976-.825.325-4.2.792-7.5 1.037-3.3.245-7.463.608-9.25.808-3.189.355-4.462-.762-2-1.756.747-.301.545-.536-.5-.583-.963-.043-1.75.545-1.75 1.308 0 2.05-5.979 2.73-6.07.69-.052-1.152-.302-1.038-.93.423-.473 1.1-.891 1.71-.93 1.355-.038-.354-1.645-.289-3.57.145-3.299.744-4.96-.244-2.25-1.338.688-.277.252-.54-.969-.583-1.492-.053-2.045.372-1.69 1.299.36.938-.447 1.521-2.531 1.826-2.101.309-3.06.034-3.06-.877 0-.73-.436-1.327-.969-1.327-.532 0-.709.675-.393 1.5.4 1.041-.069 1.5-1.531 1.5-1.313 0-2.133-.659-2.177-1.75-.06-1.486-.192-1.448-.875.25-.706 1.756.25 2.534 7.82 6.366 10.2 5.163 9.801 4.858 8.308 6.351-.911.911-1.183.869-1.183-.184 0-.751-.279-1.088-.619-.747-.341.34-1.277-.039-2.081-.843-.804-.804-1.875-1.206-2.381-.893-.505.312-.919.181-.919-.292s-2.033-1.847-4.519-3.055l-4.519-2.195.411 2.246c.227 1.235 1.096 3.821 1.932 5.746 1.774 4.085 4.689 12.275 4.627 13-.024.275 1.08 3.039 2.453 6.143 1.372 3.104 2.222 5.916 1.888 6.25-.333.334-.006.607.727.607s1.06.273.727.607c-.334.334.491 3.09 1.833 6.124 1.342 3.035 2.44 6.016 2.44 6.624 0 .609.983 3.478 2.184 6.376l2.184 5.269h43.257c30.541 0 43.458-.325 43.941-1.107.489-.791.897-.762 1.432.103.584.946 1.241.947 3.002.004 1.806-.966 2.441-.937 3.193.147.67.966.773.761.361-.721-.479-1.722.271-2.471 4.435-4.421 2.756-1.291 5.025-2.832 5.043-3.426.032-1.1 2.968 2.29 2.968 3.427 0 1.2-7.432 4.197-7.785 3.139-.395-1.185-3.215-.369-3.215.931 0 .473.749.574 1.664.223 1.119-.43 1.427-.256.941.531-.547.886 8.769 1.17 38.336 1.17H301v-3.021c0-2.253.636-3.312 2.5-4.161 1.814-.826 2.5-1.92 2.5-3.984 0-2.007 1.253-4.112 4.25-7.142 4.835-4.888 9.55-10.391 11.75-13.712.825-1.246 2.506-3.439 3.734-4.873 3.551-4.142 3.822-4.497 5.841-7.633 2.274-3.533 8.317-9.474 9.636-9.474.512 0-.563 1.462-2.39 3.25-1.826 1.788-4.888 5.5-6.803 8.25s-4.434 5.9-5.598 7c-1.164 1.1-2.648 3.008-3.298 4.24-1.175 2.227-2.65 3.959-10.976 12.884-2.395 2.567-4.478 5.796-4.629 7.176-.152 1.38-1.306 3.287-2.565 4.236-1.281.967-2.34 2.886-2.404 4.361l-.115 2.635 26.033-.266 26.034-.266.24-76.689.24-76.689-2.74-1.886c-12.966-8.922-28.735-13.781-37.74-11.627m-300.053 2.64c-.521.463-3.647 2.979-6.947 5.59l-6 4.747-.265 29.664c-.295 33.081-.484 32.193 6.64 31.291 1.719-.217 3.125.048 3.125.591 0 .542.45.708 1 .368.55-.34 1-.115 1 .5s.45.84 1 .5c.55-.34 1-.216 1 .274 0 .491.563.935 1.25.987.688.052 2.205.389 3.373.75 1.846.57 2.211.155 2.795-3.178.72-4.11 2.544-10.673 7.596-27.333 1.752-5.775 4.043-13.733 5.092-17.685l1.908-7.185-3.416-5.827c-1.878-3.205-4.244-6.541-5.257-7.413-3.432-2.954-12.934-7.496-13.894-6.641m14.063 2.766c.61.989.333 1.154-1.096.652-1.371-.481-1.204-.132.586 1.232 1.375 1.047 2.862 1.928 3.304 1.958.442.031 1.731 1.087 2.863 2.349l2.059 2.294-1.485-2.5c-.817-1.375-1.88-2.507-2.363-2.515-1.592-.028-3.421-1.607-2.878-2.485.293-.474.006-1.187-.638-1.585-.785-.485-.901-.287-.352.6M112 311.5c0 .825.45 1.5 1 1.5s1-.675 1-1.5-.45-1.5-1-1.5-1 .675-1 1.5m182.298 4.786c1.539 1.197 9.414 5.681 17.5 9.966 14.485 7.674 17.847 10.342 27.884 22.13.651.764 3.269 5.542 5.818 10.618 4.908 9.772 8.5 14.737 8.5 11.748 0-.897-.459-1.913-1.019-2.26-.56-.346-2.194-2.96-3.631-5.809-1.437-2.848-2.943-5.404-3.347-5.679-.404-.275-1.721-2.446-2.927-4.824-4.691-9.252-15.889-20.054-26.125-25.201-4.451-2.238-11.716-6.073-16.144-8.522-8.778-4.855-10.858-5.548-6.509-2.167M37.872 321.5c.54 1.1 1.714 2.9 2.61 4l1.628 2-.982-2c-.54-1.1-1.714-2.9-2.61-4l-1.628-2 .982 2M40 329c.589 1.1 1.295 2 1.57 2 .275 0 .019-.9-.57-2s-1.295-2-1.57-2c-.275 0-.019.9.57 2m9.543 4.931c-.317.512-.193 1.167.274 1.456.467.289.85-.13.85-.931 0-1.686-.316-1.833-1.124-.525M44.732 336c.942 1.1 1.853 2 2.025 2 .173 0-.168-.9-.757-2s-1.5-2-2.025-2c-.526 0-.185.9.757 2M153 337.018c0 1.461 2.858 1.858 3.946.548.853-1.029.541-1.316-1.427-1.316-1.386 0-2.519.346-2.519.768m-103.03 2.926c.573 1.07 1.535 2.25 2.139 2.623.604.374.325-.501-.62-1.944-2.002-3.055-3.038-3.518-1.519-.679m100.526.06c-.946 1.046-1.36 2.407-.939 3.087.451.731.335.96-.291.573-1.504-.929-6.728 6.336-6.892 9.586-.077 1.512.209 2.75.636 2.75 1.148 0 2.099-3.015 1.339-4.245-.401-.648-.18-.769.563-.309.716.442 1.801-.012 2.623-1.096 1.636-2.16 1.899-3.736.476-2.857-.577.357-.727-.069-.36-1.025.503-1.311.798-1.371 1.488-.302 1.129 1.749 3.105-.948 2.298-3.136-.299-.808-.223-1.149.168-.758.763.763 3.395-1.01 3.395-2.287 0-1.737-2.927-1.724-4.504.019M54 344.315C54 345.206 63.986 359 64.631 359c.258 0-1.656-3.038-4.254-6.75-5.405-7.723-6.377-8.933-6.377-7.935m1.668 6.7c.98 1.659 2.827 4.246 4.106 5.75 1.279 1.504.664.148-1.366-3.015-3.847-5.993-5.839-7.981-2.74-2.735m84.368 2.441c-.664.801-.875 1.996-.468 2.655.449.726.318.936-.333.534-1.391-.86-4.495 2.234-3.872 3.86.266.691-.217 1.19-1.084 1.121-.86-.069-1.737.362-1.95.959-.219.616.598.976 1.893.833 1.253-.138 2.664-.289 3.135-.335.471-.045.589-.781.261-1.635-.327-.854-.201-1.308.28-1.011 1.376.85 3.566-2.43 3.724-5.578.165-3.286.057-3.382-1.586-1.403M63.504 362.3c1.115 1.742 2.351 2.586 3.271 2.233.813-.312 2.122.228 2.907 1.2 1.328 1.642 1.36 1.625.466-.244-.53-1.106-2.017-2.894-3.305-3.974-1.289-1.079-1.78-1.321-1.093-.538 2.334 2.657 1.264 3.384-1.394.947l-2.644-2.424 1.792 2.8m63.23 6.171c-3.535 4.019-4.243 7.529-1.52 7.529.55 0 .743-.67.429-1.488s-.25-1.44.143-1.382c2.413.36 3.295-.299 2.741-2.046-.335-1.054-.145-2.202.421-2.552.612-.378.788-.007.434.916-.803 2.093.581 1.969 2.226-.198 1.574-2.073 1.8-3.62.403-2.757-.566.35-.734-.051-.393-.941 1.044-2.719-1.001-1.497-4.884 2.919M133 365c0 .55.45 1 1 1s1-.45 1-1-.45-1-1-1-1 .45-1 1m-65 3c.589 1.1 1.295 2 1.57 2 .275 0 .019-.9-.57-2s-1.295-2-1.57-2c-.275 0-.019.9.57 2m4.733 3.124c.679.684 1.486.991 1.793.683.308-.308-.247-.867-1.233-1.243-1.425-.542-1.54-.428-.56.56M71 373c.589 1.1 1.295 2 1.57 2 .275 0 .019-.9-.57-2s-1.295-2-1.57-2c-.275 0-.019.9.57 2m48.596 3.238c-1.048 1.139-2.025 3.166-2.172 4.505-.332 3.022-.797 3.498-3.56 3.642-1.209.063-2.366.618-2.57 1.232-.624 1.873 4.345.744 6.584-1.495 1.142-1.142 1.831-2.716 1.531-3.498-.3-.782-.07-1.716.511-2.075.67-.414.816.007.399 1.149-.611 1.672-.502 1.665 1.511-.103 2.161-1.897 3.063-4.265 1.181-3.102-.566.35-.734-.051-.393-.941.826-2.152-.74-1.797-3.022.686M77.5 378c.853 1.65 1.776 3 2.051 3 .275 0-.198-1.35-1.051-3s-1.776-3-2.051-3c-.275 0 .198 1.35 1.051 3m-1 3c.853 1.65 1.776 3 2.051 3 .275 0-.198-1.35-1.051-3s-1.776-3-2.051-3c-.275 0 .198 1.35 1.051 3m263.75-2.338c-.687.278-1.25.933-1.25 1.457 0 .585.72.566 1.869-.049 1.027-.55 2.152-.715 2.5-.368.347.347.631.106.631-.535 0-1.195-1.529-1.401-3.75-.505M1 425.441V472h17.941c11.074 0 18.181-.389 18.569-1.016.346-.559 1.042-.761 1.548-.448.505.312.695-.018.422-.734-.848-2.221 7.343-13.79 9.316-13.159 1.388.444 1.437.357.268-.472-1.164-.826-1.197-1.306-.177-2.535 1.194-1.439 4.113-1.232 4.113.29 0 1.451-8.192 11.564-9.153 11.299-.548-.151-.719.174-.38.722.339.548-.129 2.134-1.04 3.525L40.77 472h31.153l1.143-4.246c.629-2.335 1.281-4.923 1.45-5.75.169-.827.785-2.742 1.37-4.254.586-1.512.845-2.75.576-2.75s.169-1.575.974-3.5c.804-1.925 1.264-3.5 1.021-3.5-.242 0 .177-1.687.931-3.75.755-2.062 1.86-5.55 2.457-7.75.597-2.2 1.392-5.125 1.767-6.5s.669-2.725.655-3c-.015-.275.41-1.625.945-3 .534-1.375 1.183-3.615 1.441-4.977.546-2.886 1.088-3.615 2.006-2.697.363.362-.329 3.925-1.536 7.916-1.208 3.992-2.395 8.158-2.637 9.258-.242 1.1-2.487 8.975-4.988 17.5-2.501 8.525-4.768 16.738-5.037 18.25l-.49 2.75h9.574c5.265 0 9.364-.338 9.108-.752-.255-.414-.752-7.614-1.104-16-.625-14.902-.593-15.248 1.406-15.248 1.125 0 2.045.45 2.045 1s.338 1.001.75 1.001c.412.001.598-2.444.411-5.434-.249-4.007-.687-5.303-1.662-4.928-.731.28-1.535-.31-1.796-1.316-.259-1.002-.456.427-.437 3.177.018 2.75.221 3.762.45 2.25.554-3.656 1.801-3.506 2.087.25.208 2.732-3.536 4.887-3.909 2.25-.323-2.279-.662-9.745-.771-16.933-.11-7.32-.34-8.251-2.178-8.834-2.192-.696-2.188-2.569.007-3.3.87-.29 1.053 0 .533.842-.51.824-.396 1.038.317.597 2.077-1.283-2.389-5.977-4.547-4.779-.135.075-2.766-.979-5.846-2.341-5.832-2.579-13.365-4.983-14.659-4.679-.413.098-.75-.273-.75-.823 0-.55-.338-.913-.75-.806-.413.106-4.8-1.108-9.75-2.699-4.95-1.59-9.45-2.976-10-3.078-.55-.102-3.025-.769-5.5-1.482a852.34 852.34 0 0 0-5-1.43c-.275-.074-2.286-.659-4.47-1.3-2.183-.641-4.288-.837-4.677-.435-.637.657-4.97 20.939-5.123 23.98-.035.688-.447 1.25-.916 1.25-.469 0-.674-1.012-.454-2.25.219-1.238.709-4.275 1.089-6.75.38-2.475 1.071-5.85 1.537-7.5 2.547-9.033 2.376-9.953-2.227-12.011-4.763-2.129-5.876-2.443-10.464-2.957-1.763-.197-3.676-.649-4.25-1.004C1.324 379.082 1 393.333 1 425.441m113.459-43.374c-1.076 1.741.149 2.11 1.521.457.789-.95.865-1.524.201-1.524-.584 0-1.36.48-1.722 1.067m216.354.616c.721.289 1.584.253 1.916-.079.332-.332-.258-.568-1.312-.525-1.165.048-1.402.285-.604.604m5.987.483c1.358 1.293 6.2 1.358 6.2.084 0-.413-1.553-.75-3.45-.75-1.897 0-3.135.3-2.75.666m9.95.496c.688.278 1.198 1.48 1.134 2.671-.091 1.691-.216 1.783-.573.417-.699-2.675-2.171-2.082-1.86.75.15 1.375-.027 2.5-.394 2.5-.368 0-2.218 1.171-4.113 2.603-2.945 2.225-3.083 2.494-.952 1.856 2.23-.669 2.349-.575 1.128.897-.751.904-.915 1.644-.365 1.644s1.556-.67 2.236-1.489c.68-.819 1.635-1.242 2.122-.941.488.301.887.041.887-.578 0-.685-.882-.884-2.25-.508-2.187.602-2.195.576-.309-.932 2.644-2.114 4.668-2.009 3.84.198-.588 1.571-.472 1.6 1.141.287 1.077-.877 1.352-1.612.688-1.834-.611-.203-1.11-.83-1.11-1.393 0-.563.675-.765 1.5-.448.825.316 1.5.177 1.5-.31s-.562-1.112-1.25-1.39c-.747-.301-.545-.536.5-.583 3.556-.16 2.084-4.087-1.5-4-1.788.043-2.687.306-2 .583M275.158 386c0 1.375.227 1.938.504 1.25.278-.687.278-1.812 0-2.5-.277-.687-.504-.125-.504 1.25m8.857-.75c-.011 1.274.733 1.718 2.735 1.634 2.108-.089 2.283-.233.75-.616-1.1-.275-2.331-1.01-2.735-1.634-.466-.72-.74-.495-.75.616m30.735-.588c.688.278 1.813.278 2.5 0 .688-.277.125-.504-1.25-.504s-1.937.227-1.25.504m-48.735 1.588c-.01 1.176.723 1.724 2.235 1.671 1.503-.053 1.752-.268.75-.65-.825-.314-1.831-1.066-2.235-1.671-.453-.678-.74-.429-.75.65m12.798.433c.721.289 1.584.253 1.916-.079.332-.332-.258-.568-1.312-.525-1.165.048-1.402.285-.604.604M241 388.126c-2.475.828-2.472.833.25.494 2.79-.348 3.787.795 1.5 1.718-.687.277-.012.54 1.5.583 2.241.064 2.729-.338 2.634-2.171-.093-1.802-.21-1.887-.587-.428-.4 1.546-.647 1.606-1.634.395-.824-1.012-1.891-1.184-3.663-.591M83.5 392c.853 1.65 1.776 3 2.051 3 .275 0-.198-1.35-1.051-3s-1.776-3-2.051-3c-.275 0 .198 1.35 1.051 3m140.25-1.338c.688.278 1.813.278 2.5 0 .688-.277.125-.504-1.25-.504s-1.937.227-1.25.504m7 1c.688.278 1.813.278 2.5 0 .688-.277.125-.504-1.25-.504s-1.937.227-1.25.504M106 393c0 .55.45 1 1 1s1-.45 1-1-.45-1-1-1-1 .45-1 1m97.079 1.583c.048 1.165.285 1.402.604.605.289-.722.253-1.585-.079-1.917-.332-.332-.568.258-.525 1.312m-13.329 1.079c.688.278 1.813.278 2.5 0 .688-.277.125-.504-1.25-.504s-1.937.227-1.25.504m39.173.529c-.042.72-.249 1.984-.461 2.809-.211.825-.648 3.075-.97 5-.323 1.925-.831 4.175-1.129 5-.528 1.464-.702 2.313-1.741 8.5-.277 1.65-.696 3.9-.931 5-.816 3.818-1.95 10.011-2.213 12.075-.145 1.141-.751 4.516-1.348 7.5-1.928 9.651-2.235 11.376-2.564 14.425-.179 1.65-.652 3.788-1.052 4.75-.421 1.011-.289 1.75.312 1.75 1.184 0 1.81-1.784 2.634-7.5.619-4.3 1.577-9.922 2.172-12.75l.736-3.5c.382-1.815 1.154-6.215 2.149-12.25.318-1.925 1.192-6.2 1.943-9.5.751-3.3 1.627-7.685 1.946-9.744.32-2.059.987-5.549 1.483-7.756.53-2.359.532-4.24.006-4.565-.492-.304-.929.036-.972.756m-47.923.878-3.5.805 3.75-.236c2.486-.157 3.75.191 3.75 1.031 0 .707.653 1.018 1.474.702 1.265-.485 1.276-.764.072-1.968-.772-.772-1.548-1.344-1.725-1.271-.176.072-1.896.494-3.821.937m153.25.676c-3.236 1.611-4.653 4.007-1.698 2.873 2.229-.855.77 1.141-1.858 2.54-1.907 1.017-2.032.973-.953-.336 1.791-2.172.433-2.951-1.804-1.036-1.435 1.229-1.597 1.838-.666 2.512.82.594.618.692-.606.295-1.141-.37-4.285.824-8.311 3.156-3.562 2.063-7.349 4.195-8.415 4.738-1.841.938-2.661 2.513-1.307 2.513.348 0 2.148-.937 4-2.082 1.852-1.144 3.365-1.707 3.36-1.25-.013 1.473-7.799 5.412-8.217 4.158-.361-1.083-10.479 3.904-16.916 8.336l-2.64 1.818-.633-3.372c-1.695-9.037-10.912-15.52-20.245-14.241-14.715 2.017-19.237 19.45-7.834 30.204 4.285 4.042 2.998 4.82-7.069 4.275-8.059-.437-8.683 1.463-.707 2.154 3.907.339 5.175.743 3.929 1.253-1.012.415-2.25.5-2.75.191-.501-.309-.91.14-.91.997s-.48 1.559-1.067 1.559c-.59 0-.801.842-.471 1.882.391 1.229.019 2.103-1.074 2.522-1.4.538-1.466.395-.407-.881.695-.838.951-1.523.57-1.523-.947 0-9.77 5.16-11.216 6.56-.64.62-2.553 1.702-4.25 2.405-3.525 1.46-3.677 1.913-1.533 4.594 1.493 1.867 1.528 1.846.934-.559-.42-1.701-.319-2.07.316-1.156 1.04 1.499 5.746-.414 9.403-3.821 1.042-.97 3.679-2.569 5.861-3.553 3.232-1.457 3.86-2.177 3.385-3.879-.414-1.49-.312-1.702.356-.738.76 1.096 1.378 1.118 3.247.118 1.397-.748 5.589-1.163 10.627-1.052 6.484.143 8.319-.12 8.319-1.192 0-1.033-1.599-1.358-6.405-1.302-3.522.041-6.156-.326-5.853-.817.309-.5 7.96-.659 17.405-.361 9.269.292 16.853.187 16.853-.233 0-1.219-5.604-2.012-14.375-2.036l-8.125-.022 4.214-1.913c3.087-1.401 4.935-3.201 6.91-6.728 2.754-4.92 4.345-6.107 20.876-15.586 3.85-2.207 7.331-4.512 7.735-5.121.423-.638.747-.684.765-.108.018.583.337.542.765-.099.404-.605 4.56-3.28 9.235-5.945 4.675-2.665 8.725-5.141 9-5.501.275-.361 1.512-1.189 2.75-1.84 1.238-.652 2.25-2.07 2.25-3.15 0-2.327-.472-2.349-4.75-.22m-142.25.224c0 .532.675.709 1.5.393.825-.317 1.5-.753 1.5-.969 0-.216-.675-.393-1.5-.393s-1.5.436-1.5.969M155 399c-1.282.828-1.246.972.25.985.963.008 1.75-.435 1.75-.985 0-1.22-.113-1.22-2 0m5.603.167c.283.458.938.833 1.456.833s.941-.375.941-.833c0-.459-.655-.834-1.456-.834-.801 0-1.224.375-.941.834m3.397.088c0 .427 1.35.674 3 .548s3-.53 3-.899-1.35-.615-3-.548c-1.65.068-3 .472-3 .899m171.507-.266c-.35.566.051.734.941.393 1.732-.665 2.049-1.382.611-1.382-.518 0-1.216.445-1.552.989M152.5 401.713c-3.35.806-3.765 1.979-.531 1.505 1.667-.245 3.031-.844 3.031-1.331 0-.488-.113-.835-.25-.771-.137.064-1.15.332-2.25.597m7.75.003c1.512.229 3.988.229 5.5 0s.275-.416-2.75-.416-4.262.187-2.75.416m-69.369 3.503c.461 2.777.601 2.917.916.916.205-1.301-.04-2.778-.544-3.282-.555-.555-.701.378-.372 2.366m252.369.127c-2.897 2.864-2.952 4.386-.061 1.693 1.203-1.121 2.553-2.039 3-2.039.446 0 .811-.45.811-1 0-1.55-1.289-1.088-3.75 1.346m-245.171 1.842c-.051 1.093.625 1.635 1.921 1.537 1.1-.083 2-.553 2-1.045 0-.492-.646-.646-1.435-.343-.79.303-1.654.013-1.921-.643-.273-.67-.521-.453-.565.494m-1.634 8.312c1.868 30.94 1.864 32.287-.095 32.791-1.652.426-1.663.489-.1.593 1.08.072 1.788.977 1.851 2.366.055 1.238.257 4.837.45 8 .192 3.163-.055 5.75-.549 5.75-.493 0-1.063-2.363-1.265-5.25-.317-4.542-.392-4.272-.552 2-.106 4.137.231 7.25.784 7.25.532 0 .709-.675.393-1.5-.317-.825-.078-1.5.531-1.5s1.107.9 1.107 2c0 3.251-3.778 2.59-4.284-.75-.359-2.373-.437-2.27-.566.754l-.15 3.505 13.095.331 13.094.331-.585-2.335c-.322-1.285-.327-1.773-.011-1.086.819 1.785 2.46 1.553 1.769-.25-.317-.825-1.134-1.5-1.817-1.5-1.248 0-4.268-5.777-4.966-9.5-.206-1.1-1.521-4.587-2.922-7.75-1.401-3.163-2.371-5.75-2.157-5.75.214 0-.705-2.475-2.042-5.5-1.338-3.025-2.238-5.5-2-5.5.237 0-.663-2.475-2-5.5-1.338-3.025-2.202-5.5-1.92-5.5.282 0-.213-1.404-1.1-3.121-.888-1.716-1.823-4.274-2.079-5.683-1.213-6.69-2.373-5.294-1.914 2.304M82 414.926a896.61 896.61 0 0 1-5.932 6.387c-1.887 2.011-3.131 3.957-2.764 4.325.368.367 1.62-.542 2.782-2.021 1.237-1.572 2.8-2.507 3.764-2.251 2.445.648 9.036-7.193 7.085-8.427-1.918-1.214-2.052-1.16-4.935 1.987m-67.091 1.324c-.05 1.788-.198 5.163-.329 7.5-.132 2.337.134 4.25.59 4.25.457 0 .83-1.969.83-4.375 0-2.406.281-5.781.625-7.5.404-2.019.227-3.125-.5-3.125-.619 0-1.166 1.462-1.216 3.25m76.841-2.588c.688.278 1.813.278 2.5 0 .688-.277.125-.504-1.25-.504s-1.937.227-1.25.504m172.143.835c-7.168 3.896-8.15 13.481-2.011 19.621 3.486 3.486 8.118 5.222 8.118 3.043 0-.462 1.123-1.352 2.497-1.978 2.374-1.081 2.475-1.468 2.063-7.889-.239-3.714-.909-6.91-1.49-7.104-.707-.236-.853 1.594-.441 5.535.859 8.217-3.55 12.335-7.974 7.446-2.228-2.462-2.087-4.171.345-4.171 1.1 0 2 .45 2 1s.45 1 1 1 1-.927 1-2.059c0-1.199-.444-1.785-1.063-1.402-3.606 2.228-6.648-7.685-3.366-10.968 2.033-2.032 3.02-1.98 5.277.277 1.588 1.588 2.107 1.658 3.691.5 3.602-2.634 4.457-1.709 4.531 4.902.098 8.681.896 10.55 3.351 7.838 1.433-1.584 1.72-3.003 1.275-6.315-1.16-8.652-11.01-13.511-18.803-9.276m-180.322 1.074c-2.285 2.286-1.928 3.062.429.929 1.1-.995 2-1.965 2-2.155 0-.743-.927-.275-2.429 1.226m182.815 3.866c-.736 1.917.182 4.563 1.583 4.563 1.328 0 1.349-4.685.024-5.504-.554-.343-1.277.081-1.607.941M301.5 420c-1.65 1.093-2.55 1.98-2 1.971 1.003-.016 6.44-3.913 5.5-3.942-.275-.009-1.85.878-3.5 1.971m-207.342 2c0 1.375.227 1.938.504 1.25.278-.687.278-1.812 0-2.5-.277-.687-.504-.125-.504 1.25m26.524-1.348c-1.014 1.014-.825 2.555.233 1.901.503-.311 1.065-.194 1.25.261.184.454 4.835 3.236 10.335 6.181 5.5 2.945 10.331 5.839 10.735 6.43.443.649.747.679.765.075.019-.608.319-.581.765.07.824 1.198 12.235 7.506 12.235 6.762 0-1.052-2.862-3.22-7.063-5.35-2.44-1.238-4.768-2.753-5.172-3.366-.418-.636-.748-.685-.765-.116-.018.583-.337.541-.765-.1-.404-.605-5.235-3.502-10.735-6.438-5.5-2.936-10.256-5.71-10.568-6.165-.313-.455-.875-.52-1.25-.145M103.051 422c-.024 1.786 1.64 4.642 2.313 3.97.26-.26-.15-1.597-.91-2.972-.802-1.448-1.392-1.868-1.403-.998m-26.485 2.541c-1.049 1.398-2.522 2.306-3.272 2.018-1.255-.481-4.775 2.596-9.796 8.562-7.184 8.539-9.699 12.012-9.116 12.594.365.365 1.371-.346 2.236-1.58 2.887-4.122 6.421-7.72 5.78-5.885-.337.962-.162 1.75.388 1.75 1.245 0 2.415-2.866 1.665-4.079-.305-.494.143-.63.997-.303 1.537.59 2.246-1.063.802-1.871-.412-.23-.172-.276.535-.101 1.219.302 4.309-2.503 10.465-9.502 1.513-1.72 2.75-3.356 2.75-3.635 0-1.284-1.698-.279-3.434 2.032m217.684-.426c-1.788 1.145-3.25 2.274-3.25 2.509 0 .71 5.826-2.534 6.496-3.617.868-1.405.46-1.265-3.246 1.108m48.334 1.526c-.527 1.373-.38 1.435.893.378 1.735-1.44 1.916-2.019.63-2.019-.491 0-1.176.739-1.523 1.641m-274.123 6.402c-1.519 1.678-1.56 1.932-.232 1.423.889-.341 1.862-1.261 2.162-2.043.747-1.947.248-1.787-1.93.62m-53.703 2.707c.612 6.431 1.005 6.955 1.126 1.5.064-2.887-.244-5.25-.683-5.25-.44 0-.639 1.688-.443 3.75M107 432.642c0 .537.7 1.849 1.555 2.917 1.467 1.83 1.487 1.798.365-.559-1.458-3.061-1.92-3.628-1.92-2.358M59.985 442.75c-.008.413-1.582 2.55-3.498 4.75-1.915 2.2-3.21 3.212-2.878 2.25.773-2.235-1.179-2.312-2.036-.08-.353.921-.065 2.036.643 2.485 1.692 1.073 2.784 1.056 2.784-.045 0-.489 1.565-2.626 3.477-4.75 3.597-3.994 4.24-5.36 2.523-5.36-.55 0-1.007.337-1.015.75m51.839 3.24c.922 2.194 1.98 3.994 2.352 4 .371.005-.079-1.785-1-3.98-.922-2.194-1.98-3.994-2.352-4-.371-.005.079 1.785 1 3.98M158 442.884c0 .54.897 1.266 1.994 1.614 1.097.348 2.559 1.189 3.25 1.87 2.875 2.83 12.756 7.46 12.756 5.977 0-.805-.45-1.185-1-.845-.55.34-1 .115-1-.5s-.412-.864-.915-.553c-.503.311-1.065.203-1.25-.241-.561-1.35-13.835-8.375-13.835-7.322M93.286 447.5c.008 2.75.202 3.756.432 2.236.229-1.52.223-3.77-.014-5-.237-1.23-.425.014-.418 2.764m-77.898.768c.173 2.623.607 5.06.963 5.417.921.92.618-4.698-.414-7.685-.665-1.924-.791-1.401-.549 2.268M259 446.059c0 .582.45.781 1 .441s1-.816 1-1.059-.45-.441-1-.441-1 .477-1 1.059m17.177 2.542c.253 1.253 2.028 1.703 8.181 2.074 6.232.376 7.766.2 7.413-.85-.314-.933-2.539-1.325-7.516-1.325-3.888 0-6.859-.337-6.603-.75.256-.413-.044-.75-.666-.75-.623 0-.987.72-.809 1.601M259 453.134c0 1.57.784 1.866 4.941 1.866 2.718 0 5.224.457 5.569 1.016.346.559 1.16.679 1.809.266.65-.413 1.518-.758 1.931-.767.823-.016 1.082-1.097.575-2.402-.179-.46-3.587-1.063-7.575-1.341-6.591-.459-7.25-.335-7.25 1.362m18.75-1.328c-2.745.534-2.047 2.984 1 3.508 5.478.943 7.25.633 7.25-1.267 0-1.852-4.276-3.013-8.25-2.241M93.158 455c0 1.375.227 1.938.504 1.25.278-.687.278-1.812 0-2.5-.277-.687-.504-.125-.504 1.25m22.666 1.99c.922 2.194 1.98 3.994 2.352 4 .371.005-.079-1.785-1-3.98-.922-2.194-1.98-3.994-2.352-4-.371-.005.079 1.785 1 3.98M177 453.824c0 .759 22.367 11.677 24.388 11.905.489.055 1.168.553 1.51 1.105.341.553 1.281 1.154 2.088 1.336.806.181 2.072.893 2.812 1.58 1.521 1.414 3.202 1.65 3.202.449 0-.898-9.082-5.667-10.25-5.382-.412.101-.75-.294-.75-.876 0-.582-.45-.781-1-.441s-1 .115-1-.5-.412-.864-.915-.553c-.503.311-1.065.179-1.25-.293-.277-.711-17.316-9.154-18.473-9.154-.199 0-.362.371-.362.824m67.441 1.731c-1.864 1.494-1.852 1.512.309.465 1.238-.6 2.25-1.3 2.25-1.555 0-.765-.519-.544-2.559 1.09m-5.191 2.665c-1.238.597-2.25 1.483-2.25 1.968 0 1.026 3.596-.725 4.503-2.193.731-1.182.648-1.174-2.253.225m17.354.37c-.336.875-.32 2.061.036 2.636.355.575.702 1.997.77 3.16.1 1.723.72 2.087 3.352 1.967 1.776-.081 3.011.206 2.745.636-.267.431.416 1.019 1.517 1.307 1.325.347 2.353-.131 3.039-1.414.633-1.183 1.505-1.635 2.237-1.16 1.967 1.276 5.152.885 5.88-.722.586-1.293.689-1.281.75.088.107 2.423 8.75 2.577 9.38.167.435-1.666.464-1.666.574-.005.123 1.855 2.116 2.499 2.116.684 0-2.944-2.079-4.778-4.996-4.409-1.652.209-3.004-.049-3.004-.573 0-.523-.498-.952-1.107-.952s-.85.668-.537 1.485c.47 1.225.24 1.28-1.312.311-1.465-.916-2.231-.885-3.463.137-1.218 1.011-1.581 1.027-1.581.073 0-.733-.791-1.033-1.935-.733-1.119.292-2.161-.08-2.469-.884-.293-.764-1.897-1.389-3.565-1.389-1.667 0-3.031-.45-3.031-1 0-1.647-4.737-1.129-5.396.59M45.5 461c-.853 1.65-1.326 3-1.051 3 .275 0 1.198-1.35 2.051-3 .853-1.65 1.326-3 1.051-3-.275 0-1.198 1.35-2.051 3m-28.318.5c.626 1.375 1.474 2.5 1.884 2.5.41 0 .226-1.121-.41-2.492s-1.484-2.496-1.885-2.5c-.4-.004-.216 1.117.411 2.492M259 460c0 .55.477 1 1.059 1s.781-.45.441-1-.816-1-1.059-1-.441.45-.441 1m6 2.5c0 .825.45 1.5 1 1.5s1-.675 1-1.5-.45-1.5-1-1.5-1 .675-1 1.5m-146.436.793c.376.986.935 1.541 1.243 1.233.308-.307.001-1.114-.683-1.793-.988-.98-1.102-.865-.56.56m97.362 1.457c-.041.413-.263 1.762-.494 3-.231 1.238.028 2.25.574 2.25.547 0 1.027-.337 1.068-.75.041-.413.263-1.762.494-3 .231-1.238-.028-2.25-.574-2.25-.547 0-1.027.337-1.068.75m12.055.773c-1.057 1.273-.995 1.42.378.893.902-.347 1.641-1.032 1.641-1.523 0-1.286-.579-1.105-2.019.63M20 466.382c0 .825.45 1.778 1 2.118.55.34 1-.057 1-.882s-.45-1.778-1-2.118c-.55-.34-1 .057-1 .882" fill-rule="evenodd"/>
</svg>